<?xml version="1.0" encoding="UTF-8"?>
<svg version="1.1" xmlns="http://www.w3.org/2000/svg" width="512" height="512">
<path d="M0 0 C1.18905945 -0.00171204 2.3781189 -0.00342407 3.60321045 -0.00518799 C6.88802773 -0.00791058 10.17268528 -0.00168274 13.45748372 0.00836357 C17.05999044 0.01713041 20.6624916 0.01417215 24.26500607 0.01272774 C31.25022511 0.01166669 38.23539251 0.02087915 45.22059831 0.0337304 C53.30457688 0.04815654 61.38852464 0.04972133 69.47251892 0.05130005 C90.80525006 0.06179153 112.13796974 0.08971387 133.47068787 0.11550903 C181.13506287 0.15675903 228.79943787 0.19800903 277.90818787 0.24050903 C277.90818787 118.71050903 277.90818787 237.18050903 277.90818787 359.24050903 C134.59568787 359.49050903 134.59568787 359.49050903 89.33665466 359.5383606 C75.95399502 359.57157854 75.95399502 359.57157854 62.5713501 359.6100769 C56.60847079 359.62708888 50.64570116 359.63326918 44.68280029 359.63204956 C37.80188362 359.63067969 30.92115614 359.64315539 24.04029958 359.67254792 C20.52223316 359.68714476 17.00446078 359.69564813 13.48636949 359.68633318 C9.71212088 359.67969186 5.93874232 359.69759932 2.1645813 359.7215271 C0.53222644 359.70988588 0.53222644 359.70988588 -1.13310528 359.69800949 C-11.15934134 359.80994268 -19.98026108 362.20057641 -27.36915588 369.24050903 C-34.1546895 377.11849818 -35.7445931 385.07690637 -35.49806213 395.27175903 C-34.63759098 403.67790031 -30.31868127 411.18766054 -24.06837463 416.84597778 C-17.85365116 421.23067399 -10.44217876 422.81785743 -3.09181213 424.24050903 C-3.09181213 429.85050903 -3.09181213 435.46050903 -3.09181213 441.24050903 C-21.01778607 440.38689123 -35.23605842 434.17680288 -47.68165588 421.06863403 C-59.03164319 407.75033451 -62.40078999 392.56575152 -62.35923767 375.47206116 C-62.36297929 374.08563651 -62.36758285 372.69921398 -62.37296832 371.31279474 C-62.38515088 367.52166389 -62.38494347 363.7306216 -62.38257957 359.93947566 C-62.38217018 355.84316132 -62.39322223 351.74687493 -62.4026947 347.65057373 C-62.41928056 339.63129354 -62.42480319 331.61204276 -62.42591946 323.59274685 C-62.42687125 317.06992496 -62.43098813 310.54711273 -62.43732071 304.0242939 C-62.45492798 285.50976586 -62.4641606 266.99526097 -62.46265976 248.48072451 C-62.46257985 247.4833992 -62.46249994 246.4860739 -62.4624176 245.45852661 C-62.46233584 244.45997591 -62.46225408 243.46142522 -62.46216984 242.43261541 C-62.4613575 226.26147409 -62.48048337 210.09042605 -62.50869434 193.91931169 C-62.53746715 177.29420044 -62.55123215 160.6691346 -62.54950678 144.04399782 C-62.54884431 134.718668 -62.55427363 125.3934359 -62.57586288 116.06812859 C-62.59413283 108.12593993 -62.59837465 100.18389329 -62.58484404 92.24169265 C-62.57834306 88.19509105 -62.57809221 84.14876142 -62.59555054 80.1021862 C-62.69385531 55.7569904 -62.22938873 35.24078027 -44.47071838 16.49050903 C-31.66963175 4.38307734 -17.2474278 -0.09118547 0 0 Z " fill="#38BDF8" transform="translate(148.09181213378906,15.759490966796875)"/>
<path d="M0 0 C8.58 0 17.16 0 26 0 C26 8.25 26 16.5 26 25 C28.13283447 24.97905273 30.26566895 24.95810547 32.46313477 24.93652344 C39.56763132 24.86977768 46.67214298 24.82587666 53.77687168 24.79275131 C58.0778998 24.77201513 62.37860247 24.74395857 66.67944336 24.69824219 C70.84217898 24.65427865 75.00460471 24.63075836 79.16755486 24.62049103 C80.74333502 24.61318903 82.31910126 24.59893475 83.89474678 24.57707977 C103.20728509 24.32024288 120.20165091 28.92971221 134.74267578 42.45043945 C150.38755121 57.96157558 154.35664092 76.72608364 154.46813965 97.91889954 C154.46940721 100.09827641 154.46958357 102.27765416 154.46875 104.45703125 C154.47586611 106.73182865 154.48356718 109.00662429 154.49182129 111.28141785 C154.50521113 116.0327962 154.50685968 120.78400854 154.50097656 125.53540039 C154.49508626 131.58382262 154.5256714 137.6314406 154.56609344 143.67970753 C154.59211138 148.37359305 154.5948351 153.06728852 154.59120178 157.76123619 C154.59287989 159.98927518 154.60239409 162.21732422 154.62034607 164.44529152 C154.75474948 183.18522859 152.9955086 199.97366247 139.75 214.4609375 C128.22815565 225.57656298 115.83446499 229.3568749 100.25 229.3125 C98.57550781 229.33666992 98.57550781 229.33666992 96.8671875 229.36132812 C87.0410635 229.3670543 78.28177024 227.84999674 69.75 222.75 C68.81671875 222.20859375 67.8834375 221.6671875 66.921875 221.109375 C59.77600061 215.95058868 54.72308984 209.24970998 49.5625 202.1875 C48.24713721 200.41198691 46.93074151 198.63723854 45.61328125 196.86328125 C44.99018066 196.0223291 44.36708008 195.18137695 43.72509766 194.31494141 C38.13372826 186.37957204 38.13372826 186.37957204 31 180 C29.08007762 179.6858284 29.08007762 179.6858284 26.97509766 179.70947266 C26.17061188 179.69671295 25.3661261 179.68395325 24.53726196 179.67080688 C23.67160614 179.66858124 22.80595032 179.66635559 21.9140625 179.6640625 C21.02012787 179.6574057 20.12619324 179.6507489 19.20516968 179.64389038 C17.31388405 179.63376531 15.4225627 179.62907332 13.53125 179.62939453 C10.64262734 179.62502665 7.75553924 179.58872105 4.8671875 179.55078125 C3.02865105 179.54491194 1.19010735 179.54094331 -0.6484375 179.5390625 C-1.51004486 179.52469147 -2.37165222 179.51032043 -3.2593689 179.49551392 C-7.21837713 179.52555968 -9.44066111 179.66382095 -12.89379883 181.73925781 C-14.95412036 183.95075398 -16.52070729 186.03039479 -18.05078125 188.6328125 C-18.58018311 189.51686768 -19.10958496 190.40092285 -19.6550293 191.31176758 C-20.20199463 192.24013428 -20.74895996 193.16850098 -21.3125 194.125 C-31.68618668 211.24383723 -41.44983512 222.48327837 -61 229 C-65.4738783 229.31718243 -69.95373965 229.32438803 -74.4375 229.375 C-75.65888672 229.41238281 -76.88027344 229.44976562 -78.13867188 229.48828125 C-92.16398747 229.62263765 -103.27718748 224.21700531 -113.4453125 214.71484375 C-124.08996919 203.63105106 -128.49882932 189.54432059 -128.37231445 174.36303711 C-128.37596512 173.36312241 -128.37961578 172.3632077 -128.38337708 171.33299255 C-128.39140958 168.06426412 -128.37793426 164.7960429 -128.36328125 161.52734375 C-128.36276181 159.23531596 -128.36328276 156.94328773 -128.36479187 154.65126038 C-128.36470248 149.86273491 -128.35433921 145.07437894 -128.33618164 140.28588867 C-128.3134831 134.16756313 -128.31295639 128.04948458 -128.31969929 121.9311285 C-128.32305054 117.20318939 -128.3163876 112.47530593 -128.30657005 107.7473774 C-128.30273869 105.49207412 -128.30156122 103.23676463 -128.3031559 100.98145866 C-128.30352936 97.82337651 -128.29082842 94.66560373 -128.2746582 91.50756836 C-128.27713562 90.58832581 -128.27961304 89.66908325 -128.28216553 88.72198486 C-128.14060928 71.28078643 -121.31075299 55.5616487 -109.4375 42.8125 C-98.0138751 31.89234793 -82.47606775 24.85949563 -66.6394043 24.88647461 C-65.91690994 24.88632858 -65.19441559 24.88618256 -64.45002747 24.8860321 C-62.07472678 24.88672578 -59.69950565 24.89449255 -57.32421875 24.90234375 C-55.67226708 24.90420987 -54.02031485 24.90563286 -52.36836243 24.90663147 C-48.02992208 24.91044139 -43.69151545 24.92025861 -39.35308838 24.93133545 C-34.92224585 24.9415824 -30.49139785 24.94613612 -26.06054688 24.95117188 C-17.37368075 24.96188229 -8.68684846 24.9794667 0 25 C0 16.75 0 8.5 0 0 Z " fill="#38BDF8" transform="translate(243,87)"/>
<path d="M0 0 C8.58 0 17.16 0 26 0 C26 8.25 26 16.5 26 25 C28.13283447 24.97905273 30.26566895 24.95810547 32.46313477 24.93652344 C39.56763132 24.86977768 46.67214298 24.82587666 53.77687168 24.79275131 C58.0778998 24.77201513 62.37860247 24.74395857 66.67944336 24.69824219 C70.84217898 24.65427865 75.00460471 24.63075836 79.16755486 24.62049103 C80.74333502 24.61318903 82.31910126 24.59893475 83.89474678 24.57707977 C103.20728509 24.32024288 120.20165091 28.92971221 134.74267578 42.45043945 C150.38755121 57.96157558 154.35664092 76.72608364 154.46813965 97.91889954 C154.46940721 100.09827641 154.46958357 102.27765416 154.46875 104.45703125 C154.47586611 106.73182865 154.48356718 109.00662429 154.49182129 111.28141785 C154.50521113 116.0327962 154.50685968 120.78400854 154.50097656 125.53540039 C154.49508626 131.58382262 154.5256714 137.6314406 154.56609344 143.67970753 C154.59211138 148.37359305 154.5948351 153.06728852 154.59120178 157.76123619 C154.59287989 159.98927518 154.60239409 162.21732422 154.62034607 164.44529152 C154.75474948 183.18522859 152.9955086 199.97366247 139.75 214.4609375 C128.22815565 225.57656298 115.83446499 229.3568749 100.25 229.3125 C98.57550781 229.33666992 98.57550781 229.33666992 96.8671875 229.36132812 C87.0410635 229.3670543 78.28177024 227.84999674 69.75 222.75 C68.81671875 222.20859375 67.8834375 221.6671875 66.921875 221.109375 C59.77600061 215.95058868 54.72308984 209.24970998 49.5625 202.1875 C48.24713721 200.41198691 46.93074151 198.63723854 45.61328125 196.86328125 C44.99018066 196.0223291 44.36708008 195.18137695 43.72509766 194.31494141 C38.13372826 186.37957204 38.13372826 186.37957204 31 180 C29.08007762 179.6858284 29.08007762 179.6858284 26.97509766 179.70947266 C26.17061188 179.69671295 25.3661261 179.68395325 24.53726196 179.67080688 C23.67160614 179.66858124 22.80595032 179.66635559 21.9140625 179.6640625 C21.02012787 179.6574057 20.12619324 179.6507489 19.20516968 179.64389038 C17.31388405 179.63376531 15.4225627 179.62907332 13.53125 179.62939453 C10.64262734 179.62502665 7.75553924 179.58872105 4.8671875 179.55078125 C3.02865105 179.54491194 1.19010735 179.54094331 -0.6484375 179.5390625 C-1.51004486 179.52469147 -2.37165222 179.51032043 -3.2593689 179.49551392 C-7.21837713 179.52555968 -9.44066111 179.66382095 -12.89379883 181.73925781 C-14.95412036 183.95075398 -16.52070729 186.03039479 -18.05078125 188.6328125 C-18.58018311 189.51686768 -19.10958496 190.40092285 -19.6550293 191.31176758 C-20.20199463 192.24013428 -20.74895996 193.16850098 -21.3125 194.125 C-31.68618668 211.24383723 -41.44983512 222.48327837 -61 229 C-65.4738783 229.31718243 -69.95373965 229.32438803 -74.4375 229.375 C-75.65888672 229.41238281 -76.88027344 229.44976562 -78.13867188 229.48828125 C-92.16398747 229.62263765 -103.27718748 224.21700531 -113.4453125 214.71484375 C-124.08996919 203.63105106 -128.49882932 189.54432059 -128.37231445 174.36303711 C-128.37596512 173.36312241 -128.37961578 172.3632077 -128.38337708 171.33299255 C-128.39140958 168.06426412 -128.37793426 164.7960429 -128.36328125 161.52734375 C-128.36276181 159.23531596 -128.36328276 156.94328773 -128.36479187 154.65126038 C-128.36470248 149.86273491 -128.35433921 145.07437894 -128.33618164 140.28588867 C-128.3134831 134.16756313 -128.31295639 128.04948458 -128.31969929 121.9311285 C-128.32305054 117.20318939 -128.3163876 112.47530593 -128.30657005 107.7473774 C-128.30273869 105.49207412 -128.30156122 103.23676463 -128.3031559 100.98145866 C-128.30352936 97.82337651 -128.29082842 94.66560373 -128.2746582 91.50756836 C-128.27713562 90.58832581 -128.27961304 89.66908325 -128.28216553 88.72198486 C-128.14060928 71.28078643 -121.31075299 55.5616487 -109.4375 42.8125 C-98.0138751 31.89234793 -82.47606775 24.85949563 -66.6394043 24.88647461 C-65.91690994 24.88632858 -65.19441559 24.88618256 -64.45002747 24.8860321 C-62.07472678 24.88672578 -59.69950565 24.89449255 -57.32421875 24.90234375 C-55.67226708 24.90420987 -54.02031485 24.90563286 -52.36836243 24.90663147 C-48.02992208 24.91044139 -43.69151545 24.92025861 -39.35308838 24.93133545 C-34.92224585 24.9415824 -30.49139785 24.94613612 -26.06054688 24.95117188 C-17.37368075 24.96188229 -8.68684846 24.9794667 0 25 C0 16.75 0 8.5 0 0 Z M-94.01171875 64.39453125 C-100.18858237 72.8245904 -102.45403013 79.99209048 -102.40405273 90.31225586 C-102.41091599 91.31333878 -102.41777924 92.31442169 -102.42485046 93.34584045 C-102.44306366 96.63565491 -102.43928874 99.92498998 -102.43359375 103.21484375 C-102.43815808 105.51355646 -102.44346441 107.8122678 -102.44947815 110.11097717 C-102.45839846 114.92161615 -102.45599822 119.73208902 -102.44604492 124.54272461 C-102.4345554 130.69388835 -102.45477259 136.84447801 -102.48396206 142.99556637 C-102.50234669 147.74064244 -102.50202706 152.48558151 -102.49632454 157.23068428 C-102.49617161 159.49798958 -102.50219231 161.76530434 -102.51461601 164.03257561 C-102.52956695 167.20819544 -102.51881813 170.38276174 -102.50170898 173.55834961 C-102.51137695 174.48590057 -102.52104492 175.41345154 -102.53100586 176.36911011 C-102.44367046 184.14768429 -100.1003888 189.78764066 -95.875 196.25 C-88.71471927 203.09896418 -81.77237589 204.68368951 -72.12475586 204.52563477 C-66.58829075 204.26252421 -62.36947342 203.42684544 -58 200 C-57.09507812 199.3709375 -56.19015625 198.741875 -55.2578125 198.09375 C-50.50128808 194.08977016 -47.69825568 188.46692589 -44.5625 183.1875 C-33.6181342 164.84980623 -33.6181342 164.84980623 -25.5625 159.6875 C-24.88316406 159.23761719 -24.20382813 158.78773438 -23.50390625 158.32421875 C-16.3547057 154.54328429 -10.53148577 153.54120043 -2.54296875 153.56640625 C-1.55935867 153.5611644 -0.5757486 153.55592255 0.43766785 153.55052185 C2.50929831 153.54412771 4.58096521 153.54540465 6.65258789 153.55395508 C9.79315112 153.56244768 12.93188236 153.53369405 16.07226562 153.50195312 C29.91332734 153.45304673 41.3732979 154.21524218 52 164 C59.00388738 171.05131777 64.69214705 179.3971811 70.48046875 187.44921875 C75.83846219 194.79384887 81.1040321 201.03467737 90 204 C104.12794717 205.01779402 104.12794717 205.01779402 117 200 C117.928125 199.38125 118.85625 198.7625 119.8125 198.125 C124.93573069 193.14814733 128.03350505 187.6603208 128.26742554 180.51777649 C128.28536522 178.69331942 128.29228888 176.86873387 128.29052734 175.04418945 C128.29724457 174.04515091 128.30396179 173.04611237 128.31088257 172.01679993 C128.32987185 168.71557634 128.33378763 165.41455606 128.3359375 162.11328125 C128.34236608 159.81267717 128.34909449 157.51207392 128.35610962 155.21147156 C128.36808566 150.3871369 128.37179023 145.56287386 128.37060547 140.73852539 C128.37040257 134.57282683 128.39767406 128.40759067 128.43214989 122.24200153 C128.45445037 117.48831599 128.45844199 112.73474102 128.45738602 107.98100853 C128.4597384 105.7089396 128.46854137 103.43686745 128.48405075 101.16485023 C128.50376849 97.9771712 128.49784887 94.79048004 128.48583984 91.6027832 C128.49707886 90.67411438 128.50831787 89.74544556 128.51989746 88.78863525 C128.43359556 79.71921721 125.40599199 72.26430173 120 65 C119.40832031 64.195625 118.81664062 63.39125 118.20703125 62.5625 C115.88664196 59.86838429 113.68883945 58.20160333 110.6875 56.3125 C109.78386719 55.73113281 108.88023437 55.14976562 107.94921875 54.55078125 C102.32226359 51.59197171 97.04088762 50.74960108 90.73368835 50.73257446 C89.6878692 50.72577779 89.6878692 50.72577779 88.62092239 50.71884382 C86.3027954 50.70626222 83.98490523 50.7078161 81.66674805 50.70947266 C79.99723003 50.7034835 78.32771477 50.69667706 76.65820312 50.68911743 C72.13534828 50.67148971 67.61256917 50.66676342 63.08968329 50.66548586 C60.26048803 50.66406188 57.43131187 50.65978761 54.60212135 50.65449142 C44.72212125 50.63600187 34.84217503 50.62781947 24.9621582 50.62939453 C15.76843043 50.63059566 6.57493752 50.60949621 -2.61873084 50.5779072 C-10.52555576 50.55171277 -18.43230411 50.54102856 -26.33917207 50.54230535 C-31.05558328 50.54281405 -35.77178566 50.53718192 -40.48815346 50.51594925 C-44.92634302 50.49651337 -49.36412567 50.49647875 -53.80233002 50.51098251 C-55.42521195 50.51306509 -57.04811971 50.50840277 -58.67095757 50.4962616 C-72.93455518 50.39651492 -84.43283266 52.99286684 -94.01171875 64.39453125 Z " fill="#FCFEFE" transform="translate(243,87)"/>
<path d="M0 0 C1.28839108 0.00113916 1.28839108 0.00113916 2.60281026 0.00230134 C3.59259331 -0.00168076 4.58237635 -0.00566286 5.60215282 -0.00976562 C7.24512185 -0.0010271 7.24512185 -0.0010271 8.92128217 0.00788796 C10.07863634 0.00617911 11.23599051 0.00447026 12.42841601 0.00270963 C15.65060209 -0.00002363 18.87262885 0.00625941 22.09479606 0.01626575 C25.5658227 0.02487728 29.03684149 0.02198172 32.5078758 0.0204612 C38.52490359 0.01941089 44.5418881 0.02570272 50.55890501 0.03693688 C59.25856794 0.05316917 67.95820988 0.05839755 76.65788631 0.06091286 C90.77144347 0.06529354 104.88497754 0.07861274 118.99852216 0.09751809 C132.71108609 0.11586725 146.42364376 0.13002846 160.13621747 0.13853371 C160.98101178 0.13905916 161.82580608 0.13958461 162.69620021 0.14012598 C166.93415106 0.14273599 171.17210196 0.14526342 175.4100529 0.14774978 C210.58571796 0.16849389 245.76135622 0.20372954 280.93699872 0.24839699 C282.06199872 2.56089699 282.06199872 2.56089699 282.93699872 5.24839699 C282.27699872 6.23839699 281.61699872 7.22839699 280.93699872 8.24839699 C278.176028 8.54268337 275.63920015 8.63950688 272.87593305 8.60916054 C272.03301242 8.61172382 271.19009178 8.61428709 270.32162809 8.61692804 C267.48082489 8.62189218 264.6405464 8.60532992 261.79979169 8.58897316 C259.76996598 8.58812746 257.74013934 8.58860093 255.71031415 8.59030068 C250.18573566 8.59116427 244.66135109 8.57347978 239.13681781 8.55257881 C233.36857137 8.53387244 227.60032087 8.53206634 221.83204877 8.52850258 C210.90270482 8.51916432 199.97345048 8.49452647 189.04414606 8.46445411 C176.60420386 8.43096546 164.16425746 8.41443804 151.72428143 8.39936781 C126.12845934 8.36797843 100.53276016 8.31294415 74.93699872 8.24839699 C74.93699872 36.29839699 74.93699872 64.34839699 74.93699872 93.24839699 C67.04601583 86.48469737 67.04601583 86.48469737 64.28856122 83.91636574 C63.37505903 83.06582619 63.37505903 83.06582619 62.44310224 82.19810402 C61.82233808 81.6165757 61.20157392 81.03504738 60.56199872 80.43589699 C59.91223066 79.82858742 59.26246259 79.22127785 58.59300458 78.59556496 C53.60301487 73.91376773 48.7171524 69.14513978 43.93699872 64.24839699 C39.6527231 65.89379778 36.83864849 69.12964071 33.71043622 72.34995949 C33.12154615 72.94642281 32.53265607 73.54288613 31.92592084 74.15742409 C30.04972542 76.05800953 28.18012877 77.96488534 26.31199872 79.87339699 C23.84631479 82.39207925 21.3742317 84.90421456 18.89793622 87.41245949 C18.33021497 87.99677742 17.76249372 88.58109536 17.17756879 89.18311989 C15.8015959 90.57632562 14.37369912 91.91790251 12.93699872 93.24839699 C12.27699872 93.24839699 11.61699872 93.24839699 10.93699872 93.24839699 C10.93699872 65.19839699 10.93699872 37.14839699 10.93699872 8.24839699 C6.31699872 8.24839699 1.69699872 8.24839699 -3.06300128 8.24839699 C-4.06300128 7.24839699 -4.06300128 7.24839699 -4.25050128 4.81089699 C-4.01451658 1.58577289 -3.30393424 0.39781232 0 0 Z " fill="#37BDF7" transform="translate(142.06300127506256,402.7516030073166)"/>
<path d="M0 0 C66.33 0 132.66 0 201 0 C201 5.61 201 11.22 201 17 C174.94051075 17.02311581 148.88102395 17.04097759 122.82152653 17.05181217 C110.72256688 17.05697582 98.6236137 17.06401981 86.5246582 17.07543945 C75.98333194 17.08538421 65.44201036 17.09185293 54.90067953 17.09408849 C49.31541866 17.09539596 43.73017121 17.09848404 38.14491463 17.10573006 C32.89440352 17.11248699 27.64391142 17.11461763 22.39339638 17.11310768 C20.46035916 17.11338416 18.52732135 17.11539121 16.59428787 17.11920547 C13.96717739 17.12413762 11.34013991 17.12300007 8.71302795 17.12025452 C7.55011273 17.12462378 7.55011273 17.12462378 6.36370426 17.12908131 C1.11412121 17.11412121 1.11412121 17.11412121 0 16 C0 10.72 0 5.44 0 0 Z " fill="#37BCF8" transform="translate(225,440)"/>
<path d="M0 0 C8.58 0 17.16 0 26 0 C26 5.94 26 11.88 26 18 C32.27 18 38.54 18 45 18 C45 26.58 45 35.16 45 44 C38.73 44 32.46 44 26 44 C26 50.27 26 56.54 26 63 C17.42 63 8.84 63 0 63 C0 56.73 0 50.46 0 44 C-6.27 44 -12.54 44 -19 44 C-19 35.42 -19 26.84 -19 18 C-12.73 18 -6.46 18 0 18 C0 12.06 0 6.12 0 0 Z " fill="#FCFEFE" transform="translate(179,170)"/>
<path d="M0 0 C8.58 0 17.16 0 26 0 C26 8.58 26 17.16 26 26 C17.42 26 8.84 26 0 26 C0 17.42 0 8.84 0 0 Z " fill="#F8FCFE" transform="translate(326,169)"/>
<path d="M0 0 C8.25 0 16.5 0 25 0 C25 8.58 25 17.16 25 26 C16.75 26 8.5 26 0 26 C0 17.42 0 8.84 0 0 Z " fill="#FBFDFE" transform="translate(301,208)"/>
</svg>
